<?xml version="1.0" encoding="UTF-8"?> <svg xmlns="http://www.w3.org/2000/svg" viewBox="0 0 292.07 249.7"><defs><style>.cls-1{fill:#0c7;}.cls-2{fill:#883df2;}.cls-3{fill:#051e64;}.cls-4,.cls-5{fill:#fff;}.cls-5{fill-rule:evenodd;}</style></defs><title>Asset 9</title><g id="Layer_2" data-name="Layer 2"><g id="Layer_1-2" data-name="Layer 1"><path class="cls-1" d="M103.81,162.6c17.35-150.1,285.9-41.31,150,56.89-79.39,57.36-159.74,30.08-150-56.89"></path><path class="cls-2" d="M27.44,36.94C106.06-44.72,252.23,24.27,258,96.65c0,89-113.1,1.46-120.17,133.45,0,65.48-211.67-91.89-110.4-193.16"></path><path class="cls-3" d="M257.2,108.58c-10.12,69-112.64-4-119.36,121.52,0,4.41-1,7.78-2.75,10.25-22.57-13.12-35.54-39.73-31.28-77.75,9.91-85.73,101.75-87,153.39-54"></path><path class="cls-4" d="M107.2,63.11c18.67,0,26.68,2.67,26.68,21.34s-8,21.35-26.68,21.35c-3.39,0-6.42-.09-9.12-.34a2.67,2.67,0,0,1-2.42-2.66V96.89a2.17,2.17,0,0,1,.8-1.71,2.15,2.15,0,0,1,1.82-.48,54.55,54.55,0,0,0,8.92.43c10.28,0,16,0,16-10.68S118,73.83,107.27,73.83a41.13,41.13,0,0,0-6.13.29,2.63,2.63,0,0,1-2.75-2.65V66.13c0-1.47,1.23-2.38,2.67-2.67a34.71,34.71,0,0,1,6.14-.35"></path><path class="cls-5" d="M74.3,169.84c-3.54,0-6.7-.1-9.49-.38a3,3,0,0,1-2.7-3v-4.73c0-1.87,1.25-3.12,3.49-3,2.39.16,5.28.39,8.7.39h4.32c8.92,0,15.88.77,16-10.33v-16.7c-.12-10.33-5.46-10.33-16-10.33s-16,0-16,10.67,5.73,10.68,16,10.68a56,56,0,0,0,8.69-.4,3,3,0,0,1,3.5,3v4.73a3,3,0,0,1-2.71,3c-2.79.28-5.94.38-9.48.38-18.68,0-26.68-2.67-26.68-21.35s8-21.34,26.68-21.34,26.68,2.67,26.68,21.34v16c0,18.68-8,21.35-26.68,21.35Z"></path><path class="cls-5" d="M110.56,159.21c7.61,0,12.64-1.18,12.64-12.45,0-18.95-.27-28-.53-32.76a2.68,2.68,0,0,1,2.67-2.82h5.37a2.68,2.68,0,0,1,2.67,2.49c.26,3.91.5,13,.5,31.31,0,17.73-6.5,24.24-23.21,24.86a2.63,2.63,0,0,1-2-.75,2.58,2.58,0,0,1-.81-1.92v-5.29a2.68,2.68,0,0,1,2.65-2.67"></path><path class="cls-5" d="M139.09,84.45V49.77a2.68,2.68,0,0,1,2.67-2.67h5.33a2.68,2.68,0,0,1,2.67,2.67V84.45c0,10.68,5.73,10.68,16,10.68s16,0,16-10.68V76.68A2.68,2.68,0,0,1,184.45,74h5.34a2.67,2.67,0,0,1,2.66,2.67v7.77c0,18.68-8,21.35-26.68,21.35s-26.68-2.67-26.68-21.35"></path><path class="cls-5" d="M152.43,111.14h24.9a4.45,4.45,0,0,1,4.45,4.44V128a2.67,2.67,0,0,1-2.67,2.66h-5.33a2.67,2.67,0,0,1-2.67-2.66V122.7a.89.89,0,0,0-.89-.89H152.43a2.68,2.68,0,0,1-2.67-2.67v-5.33a2.68,2.68,0,0,1,2.67-2.67"></path></g></g></svg> 